# xmcd
#
# Track frame offsets: 
#        150
#        18160
#        36663
#        63647
#        91084
#        124047
#        145338
#        159959
#        182738
#        209623
#        231572
#        258628
#        281052
#        296531
#
# Disc length: 4169 seconds
#
# Revision: 5
# Processed by: cddbd v1.5.2PL0 Copyright (c) Steve Scherf et al.
# Submitted via: ExactAudioCopy v1.3
#
DISCID=d810470e
DTITLE=Various Artist - Jeam!
DYEAR=1999
DGENRE=Instrumental
TTITLE0=Трио Энвера Измайлова- Болгарский танец
TTITLE1=Шилклопер, Волков, Старостин- Таня, Танюша
TTITLE2=SAMKHA- Пламя
TTITLE3=Vermicelli Orchestra- Византия
TTITLE4=Er. J. Orchestra- Письмо для Яны
TTITLE5=Алексей Козлов и квартет им. Шостаковича- Ноктюрн
TTITLE6=Аркадий Шилклопер- Song For Every One
TTITLE7=Данилин, Кузнецов, Ростоцкий- But Beautiful
TTITLE8=Анатолий Герасимов- To Burn But Not On Fire
TTITLE9=Трио Григория Файна- Вальс для Натальи
TTITLE10=Apple Tea- Яблочный чай
TTITLE11=Вячеслав Горский- Душа в душу
TTITLE12=Rabbit's Ear Debut- Ofelia (XMZ)
TTITLE13=14th Army Big Band- Song Of The Volga Boatsmen
EXTD=YEAR: 2002
EXTT0=
EXTT1=
EXTT2=
EXTT3=
EXTT4=
EXTT5=
EXTT6=
EXTT7=
EXTT8=
EXTT9=
EXTT10=
EXTT11=
EXTT12=
EXTT13=
PLAYORDER=
